<svg id="Layer_1" data-name="Layer 1" xmlns="http://www.w3.org/2000/svg" viewBox="0 0 325.9 309.56"><defs><style>.cls-1{fill:#30283e;}.cls-2{fill:#ea6d7b;}.cls-3{fill:#f8c11b;}.cls-4{fill:#ec3352;}.cls-5{fill:#7f8b8c;}.cls-6{fill:#f3f3e9;}</style></defs><path class="cls-1" d="M442.47,372a4.61,4.61,0,0,1,2.4,3,165.88,165.88,0,0,1,8.68,33.5,159.23,159.23,0,0,1-.68,50.67c-.26,1.49.52,2.1,1.31,2.93,8.94,9.35,5.54,24.1-6.75,28-3.06,1-4.34,2.31-5.57,5.18-10,23.46-25.37,42.89-45.24,58.8a153.1,153.1,0,0,1-71.65,32,154.68,154.68,0,0,1-43.88.76,156.29,156.29,0,0,1-95.95-49.34,145.25,145.25,0,0,1-23.62-33.85A158.07,158.07,0,0,1,151,476.86a154,154,0,0,1-4.79-63.44,3.63,3.63,0,0,0-.29-2.48c-1.92-3.15-3.47-6.4-6.83-8.6-4-2.63-4.83-6.33-3.49-10.74.07-.22,0-.59.1-.67,2.88-1.87.88-3.5-.18-5.24-4-6.57-2.55-12.28,4.1-16.16q13.06-7.62,26.18-15.15a5.42,5.42,0,0,0,2-1.84c13-20.34,29.47-37.24,50-50,19.34-12,40.23-19.91,62.95-22.77a157.58,157.58,0,0,1,63.86,4.86c5.46,1.57,10.77,3.7,16.11,5.72a128.77,128.77,0,0,1,26.91,14.12c10.73,7.31,20.82,15.41,29.18,25.48a3.13,3.13,0,0,0,1.92,1.16c4.85.76,7.45,3.92,7.09,8.77-.15,2.07,1.15,3.38,2.13,4.88,3.23,5,7.11,9.51,9.06,15.22-.89.44-.85,1.53-1.49,2.15-1.71,1.24-3.2.84-4.34-.76s-2.39-3.59-3.49-5.44c-.38-.64-.41-1.78-1.39-1.51s-.56,1.33-.56,2.05c0,18.57,0,37.14-.05,55.71,0,1.72.56,2.17,2.14,2.06a13.56,13.56,0,0,1,6.89,1.69c6.39,3.16,11,13.06,4.73,19.79a3.34,3.34,0,0,0-.79,2.36c0,2.8-.11,5.6-.17,8.39,0,1.19.16,2,1.67,2.25,2.2.35,3.24,1.87,3.2,4.12,0,1.17,0,2.33,0,3.5s.86,1.5,1.89,1.55,1.67,0,1.82-1.21c.56-4.59,1.54-9.16,1.71-13.76.5-13.17.36-26.29-2.4-39.32a193.26,193.26,0,0,0-6.58-24.5c-.83-2.34-2.3-5,.86-7ZM398,436a.54.54,0,0,0-.25.34c-1.15,1.45-2.06,3.26-3.52,4.28-2.18,1.52-2.41,3.5-2.51,5.76-.07,1.54.34,2.25,2,2.24q18.12-.06,36.24,0c1.51,0,2-.52,2-2,.07-3.16-.17-6.35.38-9.49.06-.34-.23-.53-.54-.64-.14-1.5-1.32-.78-2-.79q-14.26-.11-28.53-.07a6.63,6.63,0,0,0-3.41.39ZM157.5,367.54c.44,1.62,1.12,2,2.73,1,4-2.55,8.22-4.86,12.27-7.37.8-.49.84-.19,1,.38-1,5.84-2,11.68-3.12,17.92,7.15-4.05,13.94-7.91,20.75-11.73a3,3,0,0,0,1.4-2.49c1-5.95,1.23-12,3.1-17.81.61.69,1.13.4,1.8,0,1.11-.66,2.2-1.39,3.28-2.08,3.39-2.17,7.15-3.81,10.05-6.72-.86,5.79-1.71,11.59-2.59,17.38-.09.57-.76,1.2-.13,1.67s1.15-.13,1.66-.42c6-3.33,12-6.69,18-10a3.41,3.41,0,0,0,1.48-2.75c1.06-6.28,1.65-12.65,3-18.89.44,1.07,1,1.55,2.16.72,1.51-1.06,3.24-1.82,4.71-2.93,2.94-2.22,6.9-3.12,8.74-6.75l-3.05,20.82c6.91-3.91,13.49-7.66,20.09-11.37.82-.47.88-1.2,1-2,.71-4.6,1.32-9.21,2.19-13.77.32-1.64.53-3.1-.87-4.18a3.87,3.87,0,0,0-4.57-.08c-4.5,2.59-9,5.21-13.5,7.78a1.78,1.78,0,0,0-1.15,1.8,8.91,8.91,0,0,0-3.28,1.1l-12.59,7a1.36,1.36,0,0,0-1,.32c-4.2,2.43-8.47,4.75-12.59,7.3-2.46,1.53-5.3,2.54-7.22,4.87-3.61,1.21-6.6,3.58-10,5.24-2.63,1.31-5.49,2.35-5.61,6-.67-.87.38-1.78-.13-2.84q-10.23,5.88-20.42,11.75c-.3.17-.46.59-.69.89-4.68,1.89-8.84,4.74-13.14,7.3-1.3.77-3,1.08-3.74,2.6a1.23,1.23,0,0,0-1.09.18c-4.71,2.7-9.48,5.29-14.12,8.1-3.05,1.85-2.73,6.9.37,8.78.62.38.75-.15,1.12-.33,3.39-1.66,6.57-3.85,10.47-4.23,1-.1.95-.82,1.09-1.48Q156.41,372.89,157.5,367.54Zm224.78,16.84,20-.1a30,30,0,0,0,10.36.19l.6.1c-.09,8.61-.21,17.22-.26,25.83,0,4.45-.6,3.62,3.8,3.88,2.19.13,2.9-.46,2.89-2.76-.09-23.06-.06-46.11-.08-69.17,0-4.16-1.49-5.61-5.61-5.6-9.39,0-18.78,0-28.17,0-6.2,0-6.2-.07-6.48-6.46l27.68,0c.52.08,1.05.21,1.26,0-3-3.17-5.72-6.61-9-9.48a146.58,146.58,0,0,0-33.9-22.15,144,144,0,0,0-18.57-7.07,151.92,151.92,0,0,0-39.28-7A144.64,144.64,0,0,0,243.8,296a155.57,155.57,0,0,0-37.88,22.77,157.6,157.6,0,0,0-19.32,19.17,61.52,61.52,0,0,0-5.83,7.4c2.27,0,3.33-1.83,4.93-2.64,8.07-4.1,15.71-9,23.61-13.38,10.4-5.81,20.71-11.79,31.06-17.7,6.73-3.85,13.4-7.81,20.22-11.5a9.51,9.51,0,0,1,13,3.8c1.4,2.57,2.45,5.33,3.84,7.91,4.78,8.9,0,14.85-5.95,18.24-9.35,5.32-18.74,10.55-28.1,15.84L198.56,371.2q-11.62,6.58-23.28,13.14c-.54.31-1.29.56-1.22,1.21.09.84,1,.48,1.53.66a56.23,56.23,0,0,1,6.26,2.13,2.31,2.31,0,0,0,2.48-.07c7.29-4,14.65-7.92,22-11.92,7.64-4.19,15.23-8.49,22.89-12.65,9.77-5.3,19.61-10.47,29.38-15.78,6.68-3.62,13.16-7.64,20.15-10.61,6-2.54,12.12-1.19,15.37,5.57,1.37,2.85,2.67,5.73,4.11,8.55.57,1.11.95,2.73,2.62,2.61,2.52-.17,4.63.88,6.7,2,1.45.78,1.56.19,1.55-1a56.26,56.26,0,0,1,.08-6.75,7.71,7.71,0,0,1,3.65-6c.36,1.74.64,3.5,1.08,5.22a30.5,30.5,0,0,0,5.72,12.1c1.46,1.78,2.86,3.47,5.6,2.49a5.72,5.72,0,0,1,2.53.06,22,22,0,0,1,14.73,8.42,4.62,4.62,0,0,0,4,1.79,37.9,37.9,0,0,0,10.61-1.22c1.5-.41,2.91-.1,3.33,1.27.56,1.85,1.68,1.8,3.14,1.79q16.2,0,32.4.09c4,0,5,1.8,3.05,5.37H367.39c-1.43,0-2.92-.17-4.19,1l4.1,3.79C372.29,385,377.28,384.61,382.28,384.38Zm-119.81-28a97.78,97.78,0,0,1-2.27,11.83l2.33-1.66A19.16,19.16,0,0,1,279,363.39c1.65.43,2-.11,2.32-1.41,1.19-5.52,1.86-11.12,2.59-16.72a8.36,8.36,0,0,1,.87.17c.83.28,1.84.48,2-.62s-.73-1.67-1.75-1.71a10.66,10.66,0,0,0-2.22.34,4.5,4.5,0,0,0-3.79.54q-7.51,4.17-15.07,8.29a1.92,1.92,0,0,0-1.26,1.8,5.3,5.3,0,0,0-3.28.83q-6,3.14-12,6.25c-5.33,2.87-10.69,5.68-16,8.64-2.32,1.29-4.92,2.19-6.72,4.31a18,18,0,0,0-4.89,2.11q-6.21,3.36-12.39,6.76l-19,10.29c-.45.25-1.08.35-1.08,1.06,0,4.45-2.36,8.31-3.07,12.6-.62,3.77-1.45,7.51-2.24,11.56,6.72-3.72,13-7.32,19.45-10.73a5.56,5.56,0,0,0,3.22-4.63,168,168,0,0,1,3.2-17.8c.86.68,1.57.12,2.33-.26,4.83-2.45,9.48-5.21,14-8.11-1.2,6.48-2.41,13-3.69,19.83,2.51-1.22,4.66-2.2,6.09-4.29a6.87,6.87,0,0,1,2.5-2.7c1.53-.68,2-1.91,2.51-3.34,1.95-5.4,5.62-9,11.42-10a2.17,2.17,0,0,0,2.08-2c.56-3.2,1.28-6.37,1.93-9.56C252.54,362.58,257.29,359.1,262.47,356.4ZM308,560.5l13.35-.08,18.67.07,13,0a15.52,15.52,0,0,0,9.86-1.65c4.48-2.55,5.95-7,6.59-11.5,1-6.89,2-13.78,2.9-20.67,1.18-9,2.32-17.94,4.06-26.83,1.9-9.78,3.23-19.65,4.58-29.51.34-2.45.54-4.94,1.05-7.34,1.16-5.42,1.7-10.92,2.63-16.37.35-2-.49-2.41-2.23-2.39-5.44,0-10.88,0-16.31,0-.68,0-1.41-.19-2,.33a139.17,139.17,0,0,0-15-.08c-8.7-.47-17.41-.27-26.12-.15H309.86c-.53,0-1.1-.05-1.35.6a2.7,2.7,0,0,0-2.33-.74c-2,.05-4,0-6.05,0-3.86.16-7.73-.4-11.57.32-3.76-.45-7.52-.1-11.28-.14-1.11,0-2.31-.45-3.32.4a1.68,1.68,0,0,0-1.21-.57l-24.3.16-14.95.15c-6.65-.72-13.33-.14-20-.3-.69,0-1.26.2-1,1.09.27,1.2.12,2.42.34,3.65.6,3.33,1.29,6.65,1.75,10,.78,5.69,1.73,11.34,2.56,17,1.1,7.5,2.32,15,3.43,22.48.67,4.58,1.47,9.14,2.08,13.74.91,6.89,2.33,13.71,3.34,20.59.83,5.66,1.53,11.33,2.8,16.91,1.85,8.13,7.15,11.83,15.5,10.79h13.39c6,.15,12,.23,17.93-.08l.67.14,13.25-.09c5.94.2,11.88.25,17.82,0Zm59.68-154.8c.68-3.42-.4-6.28-2.88-8-2-1.37-2.39-2.53-2-4.73.45-2.92-1.22-5-3.54-6.6a4.92,4.92,0,0,0-6.07,0c-1.55,1.08-2.64.82-3.67-.72a8.58,8.58,0,0,0-7.84-4.13c-1.69.06-2.21-1.15-2.54-2.44a12.9,12.9,0,0,0-5.06-7.57c-4.17-2.95-8.77-3.81-13.43-1.59-4.16,2-6.76,5.29-6.32,10.32a7.67,7.67,0,0,1-.8,3.61c-3.24,7.78-12,11.11-20.3,7.71-7.35-3-10.52-8.05-10-15.93a2.86,2.86,0,0,0-.93-2.51c-2.74-2.49-5.84-4.07-9.67-3.43-5.35.88-9.24,3.64-10.55,9.12-.61,2.55-1.69,4.08-4.5,4.28a6.53,6.53,0,0,0-4.54,2.15c-1.34,1.52-2.52,1.31-3.57-.24-1.33-2-3.22-2.27-5.33-1.91-3.51.59-5.79,3.44-5.84,7.59,0,2-.58,3.1-2.71,3.59-3.06.7-5.37,5.49-4.44,8.48a1.51,1.51,0,0,0,1.93,1.17c6.31-.85,12,.48,16.78,4.87,1,.92,1.73.81,2.81,0,2.44-1.82,5.06-3.29,8.3-3.13a4.86,4.86,0,0,0,3.69-1.69c2.7-2.73,4.16-5.77,2.68-9.66a5.65,5.65,0,0,1-.34-1.83c-.07-1.5.37-2.87,1.95-3.31a3.48,3.48,0,0,1,3.95,1.26,3.61,3.61,0,0,1,.86,2.83c-.59,2.92.88,3.45,3.29,3.09a3.3,3.3,0,0,1,.7,0,13.48,13.48,0,0,1,12.67,14.42c-.13,1.58-.54,3-2.43,3.15a3.06,3.06,0,0,1-3.63-2.78c-.13-.76-.29-1.52-.45-2.28a7.76,7.76,0,0,0-6.06-5.76c-2.75-.5-4.2.32-6.1,3.53a13,13,0,0,1-2.38,3.42c-1.47,1.27-3,2.67-5.08,2.45-4.91-.51-8.48,1.21-10.36,5.91-.63,1.55-1.78,1.69-3.21,1.49s-1.79-1.54-2.38-2.58c-2.84-5-7.29-7-12.82-6.88a10.22,10.22,0,0,0-10,7c-.87,2.22-2.53,1.68-4.05.95-6.53-3.15-13.38-.28-15.57,6.65-1.94,6.11.31,12.85,9.08,12.71,24.47-.4,48.95-.18,73.42-.2h6.52A16.29,16.29,0,0,1,291.3,425c.56-5.54,4.85-10,9.54-10,1.85,0,3.25.56,3.63,2.51s-.64,3-2.38,3.7a6.49,6.49,0,0,0-4,7.1,11.27,11.27,0,0,0,10.76,9.2c3.81.1,7.62.06,11.42.06q31.93,0,63.87,0a6.24,6.24,0,0,0,4.15-1.09c4.76-3.78,4.53-8.5,2.1-13.33-3.13-6.22-9.6-7.9-15.84-4.62-2.49,1.31-3.62,1-5.14-1.49a12.57,12.57,0,0,0-4.85-4.88,12.83,12.83,0,0,0-17.38,6c-1.06,2.19-3.06,2.89-4.31,1.23-3.35-4.42-8.37-7.46-10.56-12.83a2.29,2.29,0,0,0-2.84-1.65c-1.71.34-2.83-.67-3.39-2.19a2.85,2.85,0,0,1,1.43-3.79c2.17-.9,1.89-2.07,1.23-3.77a8.25,8.25,0,0,1-.32-5.93,2.88,2.88,0,0,1,3.2-2.1c1.54.11,2.66.91,2.7,2.36.08,3.42,1.63,5.13,5.07,5.14a2.15,2.15,0,0,1,1.07.39,3,3,0,0,1,1.73,3.05c-.21,1.44-1,2.64-2.5,2.68-2.57.06-1.82,1.58-1.24,2.71a18.81,18.81,0,0,0,3.83,5.11,2.5,2.5,0,0,0,3.69.2,24.57,24.57,0,0,1,7-4A20.56,20.56,0,0,1,367.65,405.7ZM300,567.21H245.23c-1.94,0-3.89,0-5.83,0-.49,0-1.17-.19-1.21.65a1,1,0,0,0,.73,1c3.75,1.55,7.37,3.48,11.23,4.62,6.25,1.84,12.41,4,18.87,5.21a175.57,175.57,0,0,0,26.7,3.26,143.77,143.77,0,0,0,26.85-1.61,129.81,129.81,0,0,0,19.33-4.26,142,142,0,0,0,25.25-10.25c4-2.14,7.9-4.33,11.7-6.74a173.87,173.87,0,0,0,16.48-12.19,147.79,147.79,0,0,0,18.79-18.39,108.84,108.84,0,0,0,11-14.72c.71-1.17.31-1.54-.87-1.55-1.86,0-3.73.1-5.59,0s-2.34.6-2.26,2.28a9.27,9.27,0,0,1-3.68,8.29,23.56,23.56,0,0,0-6,6.62c-2.82,4.66-7.47,5-13.23,3.74a8.35,8.35,0,0,1-5.84-4.74,3.31,3.31,0,0,0-2.66-2.15,8.76,8.76,0,0,1-4.05-1.57c-.94-.66-1.63-.61-1.7.73-.1,2.11-.76,4.12-1.06,6.18-1.06,7.4-2.08,14.8-3.6,22.14-1.35,6.54-9.64,13.71-17.2,13.58C338.22,567,319.11,567.21,300,567.21ZM168.78,504.47c1.67-3.21,3.13-6.17,6.54-7.46a2.57,2.57,0,0,0,1.28-2.11c.78-5.14,4.09-8.08,8.67-9.84,1.28-.49,1.69-1,1.06-2.38-2.23-5-4.75-9.81-7.17-14.68-7.63-15.31-14.75-30.87-22.77-46a4.61,4.61,0,0,0-3-2.21c-1.19-.39-1.89-.29-2,1.41a175.32,175.32,0,0,0,0,23.93,147.59,147.59,0,0,0,3.25,21.3,137.31,137.31,0,0,0,8,25.06C164.5,495.77,165.87,500.27,168.78,504.47Zm242-14.4V490c7.06,0,14.12.05,21.18,0,1.58,0,3.36.52,4.71-.69s0-2.61,0-3.92c.14-9.16,0-18.32.17-27.48,0-2.29-.71-2.88-2.88-2.86q-21,.17-41.92.12c-1.45,0-2.06.48-2.26,1.91-1.43,10.29-2.87,20.57-4.39,30.85-.27,1.81.37,2.27,2.07,2.25C395.26,490,403,490.07,410.79,490.07Zm-220.71.57c-4.4,0-8,4-7.19,7.86.42,2-.09,3.54-2.74,3.63-3.33.12-5,3.53-5.16,6.39-.14,2.64,1.3,3.91,4.95,4.31,1.89.21,2.24,1.07,2.28,2.71.12,4.88,3.69,7.49,8.49,6.22a2.61,2.61,0,0,1,3.21,1,6.5,6.5,0,0,0,4.15,2.78c4.8.79,8.49-3,7.36-8.26-.56-2.58.43-3.17,2.28-3.95a6.73,6.73,0,0,0,4.21-7.68c-.81-4.72-4.76-8.27-9.54-7.7-3.1.36-4.46-.81-5.78-3.21S193.2,490.52,190.08,490.64ZM186.3,529c5.14,9.17,32,30.71,43.15,34.94a11,11,0,0,0-.92-1.21,23.86,23.86,0,0,1-7-14.19c-1.39-10.51-3.24-20.95-4.86-31.42-.08-.47,0-1.18-.83-1.16s-3.87,3.35-3.88,4.12c-.08,4.09-1.75,7-5.16,9.62-4.43,3.36-11.23,3.63-15,.14C190.1,528.29,188.26,528.65,186.3,529Zm223.57-15.56c-.05-1.32.21-3.22-1.31-3.82-2.8-1.09-3.07-3.21-3.44-5.69a7,7,0,0,0-4.82-6c-3.13-1-6,.43-7.11,3.81-.75,2.32-1.93,3.38-4.36,3a5.62,5.62,0,0,0-1.16,0c-4.08.12-7.39,3.95-7.44,8.61a6.93,6.93,0,0,0,7.07,7.09c2.38,0,3.78.55,4.68,3a5.69,5.69,0,0,0,6.39,3.93,6,6,0,0,0,4.78-5.33,2.23,2.23,0,0,1,2-2.16C408.41,518.93,409.8,517,409.87,513.42ZM299.18,386.17c5.26,0,8.34-3,8-8.13-.14-2.17-.17-4.13,1.51-5.8.69-.69.53-1.76.44-2.68a9.92,9.92,0,0,0-3.42-6.16c-3.68-3.5-7.67-3.63-11.54-.36a2.38,2.38,0,0,1-2.54.53c-1.54-.52-2.48.14-3.24,1.45-1.06,1.81-1,3.46.66,4.77,2,1.64,2.25,3.43,1.17,5.72a5.68,5.68,0,0,0-.1,4.95A9.92,9.92,0,0,0,299.18,386.17Zm117.7,43v.18h16.31c2.25,0,2.65-.51,2.08-2.57-1.09-4-3.48-6-7.56-6-9.79-.08-19.57,0-29.35-.06-1.56,0-1.45.56-1,1.61a12.52,12.52,0,0,1,1.28,5.34c0,1.18.41,1.59,1.69,1.57C405.86,429.14,411.37,429.19,416.88,429.19ZM156.13,386.63c-2.83,0-12.73,5.23-13.9,6.88-.58.82-.15,1.29.31,1.81,1.27,1.47,2.54,2.93,3.83,4.37.72.8,1.09.45,1.43-.41.66-1.66,1.37-3.3,2.16-4.89,1.93-3.9,4.42-5,8.49-3.66,6.31,2.15,12.59,4.35,19,6,.87.23,2,1.25,2.64-.11s-.67-2-1.73-2.53a26.43,26.43,0,0,0-2.61-1c-4.33-1.48-8.66-3-13-4.41C160.38,387.9,158.06,386.73,156.13,386.63Zm243.39,17h0v6.28c0,4.51,0,4.47,4.5,4.37,1.41,0,2.08-.39,2.06-2-.08-5.89,0-11.78-.05-17.67a3.43,3.43,0,0,0-3.52-3.51c-1.71,0-2.92,1.35-3,3.44C399.48,397.58,399.52,400.6,399.52,403.62Zm43.89,70.62h0c0,2.71.05,5.43,0,8.14,0,1.36.39,1.8,1.77,1.43a9.93,9.93,0,0,0,7.06-9.07c.3-4.14-2.29-8.7-5.7-10.06-2.16-.86-3.09-.23-3.1,2.12S443.41,471.76,443.41,474.24Zm-26.67,22.24v0c-1.79,0-3.58-.09-5.36,0-1.06.06-2.06.32-1.15,1.88a10.41,10.41,0,0,1,1.45,5.57c0,1.11.44,1.53,1.5,1.52h8.16c.77,0,1.31-.21,1.41-1.15.21-1.92.51-3.83.82-5.74.25-1.57-.51-2.14-1.94-2.14ZM199.39,436.61c0-3-.49-3.33-3.1-2q-6.6,3.4-13.17,6.87a10.08,10.08,0,0,0-1.59.94c-1.07.82-1.72,1.88-1.13,3.22a2.65,2.65,0,0,0,3.27,1.55,6.36,6.36,0,0,0,1.76-.57q6.1-3.33,12.19-6.74A3.42,3.42,0,0,0,199.39,436.61Zm-8.7,27.65a15.87,15.87,0,0,0,2.32-.85c2.71-1.49,5.42-3,8.07-4.6a39.94,39.94,0,0,0,4.63-2.63c1.51-1.22.82-2.47.26-3.75s-1.66-1.07-2.58-.68a150,150,0,0,0-14.82,7.74,2.07,2.07,0,0,0-.84,2.84A2.87,2.87,0,0,0,190.69,464.26Zm8.41,16.11c-.19,0,.3,0,.72-.13,3.47-1.37,6.5-3.56,9.72-5.38.63-.36.26-4.51-.32-5-.31-.29-.58-.14-.83,0-3.91,2-8,3.79-11.63,6.25a2,2,0,0,0-.8,2.65C196.44,479.76,197.14,480.56,199.1,480.37Zm230.48,25c2.5-1.52,2.28-4.33,3.84-6.09.5-.58,1.2-2.19-.43-2.68-1.45-.44-2.9-.15-3,1.78C429.8,500.6,429.3,502.8,429.58,505.37ZM162.43,401.5c-2-.07-2.76,1-2.78,2.86s.81,3,2.62,3.18a3.15,3.15,0,0,0,3.2-3A3,3,0,0,0,162.43,401.5Zm45.3,89.74c1.33,1.07,2.35,2.16,3.79,2.56.44.13,1.22.52,1.39-.18a5.51,5.51,0,0,0-.47-4.22c-.65-1-1.66.3-2.49.58A14.06,14.06,0,0,0,207.73,491.24Zm178.43,5.14c-.86.24-2.19-.4-2.3,1.2a1,1,0,0,0,1.28.92c1-.4,2.74,0,3-1.3S386.83,496.74,386.16,496.38Z" transform="translate(-133.31 -278.5)"/><path class="cls-2" d="M442.47,372l-1.79.17-5.15-10c.64-.62.6-1.71,1.49-2.15,2,2.52,3.06,5.56,4.32,8.48A33.66,33.66,0,0,1,442.47,372Z" transform="translate(-133.31 -278.5)"/><path class="cls-3" d="M367.65,405.7a20.56,20.56,0,0,0-14.64-1,24.57,24.57,0,0,0-7,4,2.5,2.5,0,0,1-3.69-.2,18.81,18.81,0,0,1-3.83-5.11c-.58-1.13-1.33-2.65,1.24-2.71,1.45,0,2.29-1.24,2.5-2.68a3,3,0,0,0-1.73-3.05,2.15,2.15,0,0,0-1.07-.39c-3.44,0-5-1.72-5.07-5.14,0-1.45-1.16-2.25-2.7-2.36a2.88,2.88,0,0,0-3.2,2.1,8.25,8.25,0,0,0,.32,5.93c.66,1.7.94,2.87-1.23,3.77a2.85,2.85,0,0,0-1.43,3.79c.56,1.52,1.68,2.53,3.39,2.19a2.29,2.29,0,0,1,2.84,1.65c2.19,5.37,7.21,8.41,10.56,12.83,1.25,1.66,3.25,1,4.31-1.23a12.83,12.83,0,0,1,17.38-6,12.57,12.57,0,0,1,4.85,4.88c1.52,2.47,2.65,2.8,5.14,1.49,6.24-3.28,12.71-1.6,15.84,4.62,2.43,4.83,2.66,9.55-2.1,13.33a6.24,6.24,0,0,1-4.15,1.09q-31.93,0-63.87,0c-3.8,0-7.61,0-11.42-.06a11.27,11.27,0,0,1-10.76-9.2,6.49,6.49,0,0,1,4-7.1c1.74-.69,2.76-1.78,2.38-3.7s-1.78-2.5-3.63-2.51c-4.69,0-9,4.45-9.54,10a16.29,16.29,0,0,0,3.63,12.57h-6.52c-24.47,0-49-.2-73.42.2-8.77.14-11-6.6-9.08-12.71,2.19-6.93,9-9.8,15.57-6.65,1.52.73,3.18,1.27,4.05-.95a10.22,10.22,0,0,1,10-7c5.53-.14,10,1.91,12.82,6.88.59,1,.82,2.37,2.38,2.58s2.58.06,3.21-1.49c1.88-4.7,5.45-6.42,10.36-5.91,2.11.22,3.61-1.18,5.08-2.45a13,13,0,0,0,2.38-3.42c1.9-3.21,3.35-4,6.1-3.53a7.76,7.76,0,0,1,6.06,5.76c.16.76.32,1.52.45,2.28A3.06,3.06,0,0,0,288,414c1.89-.15,2.3-1.57,2.43-3.15a13.48,13.48,0,0,0-12.67-14.42,3.3,3.3,0,0,0-.7,0c-2.41.36-3.88-.17-3.29-3.09a3.61,3.61,0,0,0-.86-2.83,3.48,3.48,0,0,0-3.95-1.26c-1.58.44-2,1.81-1.95,3.31a5.65,5.65,0,0,0,.34,1.83c1.48,3.89,0,6.93-2.68,9.66a4.86,4.86,0,0,1-3.69,1.69c-3.24-.16-5.86,1.31-8.3,3.13-1.08.81-1.8.92-2.81,0-4.78-4.39-10.47-5.72-16.78-4.87a1.51,1.51,0,0,1-1.93-1.17c-.93-3,1.38-7.78,4.44-8.48,2.13-.49,2.68-1.59,2.71-3.59,0-4.15,2.33-7,5.84-7.59,2.11-.36,4-.06,5.33,1.91,1.05,1.55,2.23,1.76,3.57.24a6.53,6.53,0,0,1,4.54-2.15c2.81-.2,3.89-1.73,4.5-4.28,1.31-5.48,5.2-8.24,10.55-9.12,3.83-.64,6.93.94,9.67,3.43a2.86,2.86,0,0,1,.93,2.51c-.56,7.88,2.61,12.92,10,15.93,8.31,3.4,17.06.07,20.3-7.71a7.67,7.67,0,0,0,.8-3.61c-.44-5,2.16-8.33,6.32-10.32,4.66-2.22,9.26-1.36,13.43,1.59a12.9,12.9,0,0,1,5.06,7.57c.33,1.29.85,2.5,2.54,2.44a8.58,8.58,0,0,1,7.84,4.13c1,1.54,2.12,1.8,3.67.72a4.92,4.92,0,0,1,6.07,0c2.32,1.6,4,3.68,3.54,6.6-.35,2.2.08,3.36,2,4.73C367.25,399.42,368.33,402.28,367.65,405.7Z" transform="translate(-133.31 -278.5)"/><path class="cls-4" d="M312.79,342.23a7.71,7.71,0,0,0-3.65,6,56.26,56.26,0,0,0-.08,6.75c0,1.22-.1,1.81-1.55,1-2.07-1.11-4.18-2.16-6.7-2-1.67.12-2.05-1.5-2.62-2.61-1.44-2.82-2.74-5.7-4.11-8.55-3.25-6.76-9.37-8.11-15.37-5.57-7,3-13.47,7-20.15,10.61-9.77,5.31-19.61,10.48-29.38,15.78-7.66,4.16-15.25,8.46-22.89,12.65-7.31,4-14.67,7.9-22,11.92a2.31,2.31,0,0,1-2.48.07,56.23,56.23,0,0,0-6.26-2.13c-.55-.18-1.44.18-1.53-.66-.07-.65.68-.9,1.22-1.21q11.66-6.55,23.28-13.14l44.81-25.34c9.36-5.29,18.75-10.52,28.1-15.84,6-3.39,10.73-9.34,5.95-18.24-1.39-2.58-2.44-5.34-3.84-7.91a9.51,9.51,0,0,0-13-3.8c-6.82,3.69-13.49,7.65-20.22,11.5-10.35,5.91-20.66,11.89-31.06,17.7-7.9,4.41-15.54,9.28-23.61,13.38-1.6.81-2.66,2.62-4.93,2.64a60.63,60.63,0,0,1,5.83-7.39c.86.45.85.45,1.54-.27,1.58-1.65,3.18-3.25,5.58-3.7a5.21,5.21,0,0,0,2.5-1.62,172.17,172.17,0,0,1,15-13A163,163,0,0,1,239.79,302c8-3.65,16-7.06,24.53-9.19a163.59,163.59,0,0,1,28.57-4.59,133.1,133.1,0,0,1,28.91,1.48A151.9,151.9,0,0,1,348.86,296a130.07,130.07,0,0,1,23.53,10.29,176.66,176.66,0,0,1,27.08,19.38c.76.66,1.86,3,3.31.45.14-.25.4-.11.54.1,1.06,1.51,3,2.17,3.71,4l-27.68,0c-.64-1.38-1-2.88-1.62-4.22a36.09,36.09,0,0,0-10.48-13.21c-5.4-4.32-12-5.73-18.59-6.78-3.58-.57-7,.8-10.47,1.06a13.45,13.45,0,0,0-3.85,1.33,33.94,33.94,0,0,0-15.23,12.28,33.59,33.59,0,0,0-5,10.75A31.54,31.54,0,0,0,312.79,342.23Z" transform="translate(-133.31 -278.5)"/><path class="cls-5" d="M312.79,342.23a31.54,31.54,0,0,1,1.28-10.73,33.59,33.59,0,0,1,5-10.75,33.94,33.94,0,0,1,15.23-12.28,13.45,13.45,0,0,1,3.85-1.33c3.5-.26,6.89-1.63,10.47-1.06,6.63,1.05,13.19,2.46,18.59,6.78a36.09,36.09,0,0,1,10.48,13.21c.61,1.34,1,2.84,1.62,4.22.28,6.39.28,6.44,6.48,6.46,9.39,0,18.78,0,28.17,0,4.12,0,5.6,1.44,5.61,5.6,0,23.06,0,46.11.08,69.17,0,2.3-.7,2.89-2.89,2.76-4.4-.26-3.82.57-3.8-3.88.05-8.61.17-17.22.26-25.83,1.56-.24,2.6-.94,2.52-2.71a2.24,2.24,0,0,0-2.44-2.43c.07-.84.15-1.68.21-2.53a2.06,2.06,0,0,0-1.93-2.39c-4.38-.86-5.39-.08-5.49,4.27,0,.07,0,.15-.05.22.09,5.18.09,5.17,5.22,5.29a12.34,12.34,0,0,1,1.36.18,30,30,0,0,1-10.36-.19c.15-4.67,0-4.84-3.32-4.67,1.92-3.57,1-5.34-3.05-5.37q-16.2-.11-32.4-.09c-1.46,0-2.58.06-3.14-1.79-.42-1.37-1.83-1.68-3.33-1.27a37.9,37.9,0,0,1-10.61,1.22,4.62,4.62,0,0,1-4-1.79,22,22,0,0,0-14.73-8.42,5.72,5.72,0,0,0-2.53-.06c-2.74,1-4.14-.71-5.6-2.49a30.5,30.5,0,0,1-5.72-12.1C313.43,345.73,313.15,344,312.79,342.23Zm100.63,11.94c1.59.13,2.33-.67,2.19-2.19-.12-1.33,0-3-2.17-2.73a3,3,0,0,0-.69-4.12,5,5,0,0,0-5.27-.42c-1.51.63-1.42,2.2-1.05,3.63a5.63,5.63,0,0,1,.1.91c.11,1.63-.75,3.37.52,4.88-1.14,1.47-1.19,3.94-.1,4.78.91.69,5.29.85,6.09,0C414.34,357.51,414.13,355.82,413.42,354.17Zm-13.44.31c2.07-.12,2.58-1.65,2.53-3.24-.05-1.87-1.72-1.89-3.1-2.08,1.11-3.9.34-4.89-3.74-4.9-4.42,0-8.85.12-13.26-.12-2.5-.14-3.65.54-3.78,3.12-.07,1.38.15,2.1,1.62,2.11,2.09,0,4.18.06,6.27.09-2.17.5-2,2.44-2.31,4-.23,1,.78.9,1.38,1.11a20.77,20.77,0,0,0,.57,2.95c.37,1.09.93,2.11,2.4,2.07,2.63-.08,5.26-.09,7.9-.15C400,359.34,400.94,358,400,354.48Zm-54.25,2.37.94-1.35c1,2.32-.18,4.43-1.32,6.54-.43.81-1.13,1.73-.2,2.45,2.33,1.8,7.79-.64,8.59-3.75a8.76,8.76,0,0,0,6.82-4.93l3.9-3.94c5.07-2.63,7.73-8.06,3.65-12.47,1.6-.46,2.23,1,3.32,1.61.67.36,1.17,1.28,2.22.6a5.58,5.58,0,0,0,2-6.94c-1.72-3.87-1.84-3.9-5.32-1.51-.33-3.61-2.16-6.45-4.59-9-1-1-1.87-2.26-3.52-2.28-.87-2.1-2.82-2-4.61-2.28-3.11-5.7-10.89-7.11-15.32-2.79-3.69-1.66-6.39.53-6.29,5.11-.9-.9-.17-2.11-.7-3.37a19.81,19.81,0,0,0-9.82,8.4c-2.21,3.9-2,4.75.9,7.84-2.27.09-3.29-1.67-4.57-3.08-.64-.71-1.36-1.76-2.36-.33a8.42,8.42,0,0,0,.27,10.41c.95,1.21,1.44.93,2.3,0,1-1.1,2-2.46,3.81-2.28-2.58,3.59-2.63,6-.27,9.28a21.87,21.87,0,0,0,3.54,3.33c1,1.11,1.93,2.2,2.88,3.31s1.29.12,1.69-.56a7.1,7.1,0,0,0,6.35,6C342.35,361.25,344.42,359.78,345.73,356.85ZM363.31,369c5.23,1.07,10.09.79,14.94.76,1.67,0,2.26-.67,2.34-2.36.1-2.15-.66-3.16-2.84-3.26-2.58-.12-5.29-1.28-7.66.31C367.92,365.91,366,367.7,363.31,369Zm29.22.77v0c1.47,0,3,.07,4.41,0a2.83,2.83,0,0,0,2.93-3,2.6,2.6,0,0,0-2.72-2.85,66.44,66.44,0,0,0-8.81.15c-2.16.2-2.41,1.63-2.31,3.23s1.15,2.43,2.79,2.43Zm17.45.07c2.14,0,3.73-1.21,3.79-2.94.08-1.93-1.37-3.13-3.77-3.13s-3.67.94-3.69,2.87S407.57,369.83,410,369.85ZM374.72,359l2.82.48a2.07,2.07,0,0,0,2.58-1.41c.39-1.3.83-2.75-.33-3.91a1.35,1.35,0,0,0-2.33.22C376.57,355.79,375.74,357.25,374.72,359Z" transform="translate(-133.31 -278.5)"/><path class="cls-4" d="M340,560.49l-18.67-.07c-.12-.27-.37-.55-.34-.81.5-4,.14-8.07.18-12.09.38-34.41.62-68.82,1.83-103.22,8.71-.12,17.42-.32,26.12.15-.37,4-.7,8-1.13,12-.9,8.53-1.48,17.1-2.28,25.64-.59,6.38-.86,12.84-1.4,19.24C342.66,521,340.82,540.73,340,560.49Z" transform="translate(-133.31 -278.5)"/><path class="cls-4" d="M248.45,444.37l24.3-.17a1.68,1.68,0,0,1,1.21.57c.1.92.26,1.84.29,2.76.16,5.51.17,11,.46,16.53,1.44,27.47.61,55,1,82.45-.43,4.63.08,9.26-.1,13.88-6,.31-11.95.23-17.93.08-.21-2.94-.46-5.88-.61-8.82-.62-12-1.64-24-2.65-35.95q-1.89-22.49-3.73-45Q249.57,457.55,248.45,444.37Z" transform="translate(-133.31 -278.5)"/><path class="cls-4" d="M288.56,444.51c3.84-.72,7.71-.16,11.57-.32,2-.09,4,0,6.05,0a2.7,2.7,0,0,1,2.33.74c.54,2.38-.14,4.74-.18,7.12q-.15,9.94-.32,19.89c-.84-.84,0-2.06-.68-3.09v91.61c-5.95.27-11.89.22-17.83,0q0-6.86,0-13.72,0-33.63,0-67.25,0-10.7-.06-21.37a3.22,3.22,0,0,0-.41-1Q288.76,450.79,288.56,444.51Z" transform="translate(-133.31 -278.5)"/><path class="cls-4" d="M300,567.21c19.11,0,38.22-.23,57.32.11,7.56.13,15.85-7,17.2-13.58,1.52-7.34,2.54-14.74,3.6-22.14.3-2.06,1-4.07,1.06-6.18.07-1.34.76-1.39,1.7-.73a8.76,8.76,0,0,0,4.05,1.57,3.31,3.31,0,0,1,2.66,2.15,8.35,8.35,0,0,0,5.84,4.74c5.76,1.21,10.41.92,13.23-3.74a23.56,23.56,0,0,1,6-6.62,9.27,9.27,0,0,0,3.68-8.29c-.08-1.68.48-2.41,2.26-2.28s3.73,0,5.59,0c1.18,0,1.58.38.87,1.55a108.84,108.84,0,0,1-11,14.72,147.79,147.79,0,0,1-18.79,18.39,173.87,173.87,0,0,1-16.48,12.19c-3.8,2.41-7.74,4.6-11.7,6.74A142,142,0,0,1,341.9,576.1a129.81,129.81,0,0,1-19.33,4.26A143.77,143.77,0,0,1,295.72,582a175.57,175.57,0,0,1-26.7-3.26c-6.46-1.23-12.62-3.37-18.87-5.21-3.86-1.14-7.48-3.07-11.23-4.62a1,1,0,0,1-.73-1c0-.84.72-.65,1.21-.65,1.94,0,3.89,0,5.83,0H300Z" transform="translate(-133.31 -278.5)"/><path class="cls-4" d="M244.26,560.47c-8.35,1-13.65-2.66-15.5-10.79-1.27-5.58-2-11.25-2.8-16.91-1-6.88-2.43-13.7-3.34-20.59-.61-4.6-1.41-9.16-2.08-13.74-1.11-7.5-2.33-15-3.43-22.48-.83-5.68-1.78-11.33-2.56-17-.46-3.34-1.15-6.66-1.75-10-.22-1.23-.07-2.45-.34-3.65-.21-.89.36-1.11,1-1.09,6.66.16,13.34-.42,20,.3.13,1.47.24,2.94.38,4.41,1.5,15.48,2.57,31,4.23,46.48,1.24,11.56,2.15,23.17,3.24,34.75Q242.78,545.32,244.26,560.47Z" transform="translate(-133.31 -278.5)"/><path class="cls-4" d="M364.12,444.53c.6-.52,1.33-.33,2-.33,5.43,0,10.87.05,16.31,0,1.74,0,2.58.36,2.23,2.39-.93,5.45-1.47,10.95-2.63,16.37-.51,2.4-.71,4.89-1.05,7.34-1.35,9.86-2.68,19.73-4.58,29.51-1.74,8.89-2.88,17.86-4.06,26.83-.91,6.89-1.93,13.78-2.9,20.67-.64,4.55-2.11,8.95-6.59,11.5a15.52,15.52,0,0,1-9.86,1.65c.59-5.79,1.23-11.56,1.75-17.35,1-11.42,2.41-22.81,3.3-34.25.84-10.73,2.15-21.43,3.17-32.14S363.16,455.27,364.12,444.53Z" transform="translate(-133.31 -278.5)"/><path class="cls-6" d="M364.12,444.53c-1,10.74-1.87,21.47-2.9,32.2s-2.33,21.41-3.17,32.14c-.89,11.44-2.26,22.83-3.3,34.25-.52,5.79-1.16,11.56-1.75,17.35l-13,0c.83-19.76,2.67-39.45,4.31-59.15.54-6.4.81-12.86,1.4-19.24.8-8.54,1.38-17.11,2.28-25.64.43-4,.76-8,1.13-12A139.17,139.17,0,0,1,364.12,444.53Z" transform="translate(-133.31 -278.5)"/><path class="cls-6" d="M244.26,560.47q-1.47-15.16-2.91-30.32c-1.09-11.58-2-23.19-3.24-34.75-1.66-15.47-2.73-31-4.23-46.48-.14-1.47-.25-2.94-.38-4.41l14.95-.15q1.11,13.18,2.21,26.36,1.88,22.48,3.73,45c1,12,2,23.95,2.65,35.95.15,2.94.4,5.88.61,8.82Z" transform="translate(-133.31 -278.5)"/><path class="cls-6" d="M289.44,479.47q0,33.62,0,67.25,0,6.85,0,13.72l-13.25.09c-.17-4.68.22-9.37-.57-14-.36-27.48.47-55-1-82.45-.29-5.5-.3-11-.46-16.53,0-.92-.19-1.84-.29-2.76,1-.85,2.21-.42,3.32-.4,3.76,0,7.52-.31,11.28.14q.21,6.27.41,12.55C288.86,464.53,289,472,289.44,479.47Z" transform="translate(-133.31 -278.5)"/><path class="cls-6" d="M308,471.9q.17-9.94.32-19.89c0-2.38.72-4.74.18-7.12.25-.65.82-.6,1.35-.6H323c-1.21,34.4-1.45,68.81-1.83,103.22,0,4,.32,8.07-.18,12.09,0,.26.22.54.34.81L308,560.5c-.51-21.08-.32-42.17-.22-63.27C307.79,488.79,307.92,480.34,308,471.9Z" transform="translate(-133.31 -278.5)"/><path class="cls-4" d="M168.78,504.47c-2.91-4.2-4.28-8.7-6.15-13a137.31,137.31,0,0,1-8-25.06,147.59,147.59,0,0,1-3.25-21.3,175.32,175.32,0,0,1,0-23.93c.11-1.7.81-1.8,2-1.41a4.61,4.61,0,0,1,3,2.21c8,15.11,15.14,30.67,22.77,46,2.42,4.87,4.94,9.71,7.17,14.68.63,1.41.22,1.89-1.06,2.38-4.58,1.76-7.89,4.7-8.67,9.84a2.57,2.57,0,0,1-1.28,2.11C171.91,498.3,170.45,501.26,168.78,504.47Z" transform="translate(-133.31 -278.5)"/><path class="cls-4" d="M435.53,362.15l5.15,10c-3.16,2-1.69,4.65-.86,7a193.26,193.26,0,0,1,6.58,24.5c2.76,13,2.9,26.15,2.4,39.32-.17,4.6-1.15,9.17-1.71,13.76-.15,1.2-.9,1.26-1.82,1.21s-1.87-.3-1.89-1.55,0-2.33,0-3.5c0-2.25-1-3.77-3.2-4.12-1.51-.23-1.7-1.06-1.67-2.25.06-2.79.13-5.59.17-8.39a3.34,3.34,0,0,1,.79-2.36c6.29-6.73,1.66-16.63-4.73-19.79a13.56,13.56,0,0,0-6.89-1.69c-1.58.11-2.15-.34-2.14-2.06.06-18.57,0-37.14.05-55.71,0-.72-.35-1.81.56-2.05s1,.87,1.39,1.51c1.1,1.85,2.24,3.69,3.49,5.44S433.82,363.39,435.53,362.15Z" transform="translate(-133.31 -278.5)"/><path class="cls-3" d="M410.79,490.07c-7.77,0-15.53,0-23.29,0-1.7,0-2.34-.44-2.07-2.25,1.52-10.28,3-20.56,4.39-30.85.2-1.43.81-1.91,2.26-1.91q21,0,41.92-.12c2.17,0,2.92.57,2.88,2.86-.15,9.16,0,18.32-.17,27.48,0,1.31,1.29,2.74,0,3.92s-3.13.67-4.71.69c-7.06.09-14.12,0-21.18,0Zm13-18.6h.09c0-3.41-.11-6.83.05-10.24.08-1.72-.32-2.31-2.14-2.27-5.74.09-11.49,0-17.23,0-3.48,0-3.64.23-3.62,3.67,0,6.28.2,12.56-.15,18.85-.08,1.51.52,2.64,2.45,2.61q9.19-.1,18.4,0c1.62,0,2.21-.52,2.18-2.13C423.75,478.46,423.79,475,423.79,471.47Z" transform="translate(-133.31 -278.5)"/><path class="cls-2" d="M407,330.25c-.67-1.87-2.65-2.53-3.71-4-.14-.21-.4-.35-.54-.1-1.45,2.51-2.55.21-3.31-.45a176.66,176.66,0,0,0-27.08-19.38A130.07,130.07,0,0,0,348.86,296a151.9,151.9,0,0,0-27.06-6.33,133.1,133.1,0,0,0-28.91-1.48,163.59,163.59,0,0,0-28.57,4.59c-8.5,2.13-16.58,5.54-24.53,9.19a163,163,0,0,0-28.53,17.33,172.17,172.17,0,0,0-15,13,5.21,5.21,0,0,1-2.5,1.62c-2.4.45-4,2.05-5.58,3.7-.69.72-.68.72-1.54.27A148.89,148.89,0,0,1,243.8,296a144.64,144.64,0,0,1,63.76-11.36,151.92,151.92,0,0,1,39.28,7,144,144,0,0,1,18.57,7.07,146.58,146.58,0,0,1,33.9,22.15c3.26,2.87,6,6.31,9,9.48C408.08,330.46,407.55,330.33,407,330.25Z" transform="translate(-133.31 -278.5)"/><path class="cls-3" d="M190.08,490.64c3.12-.12,5.17,1.64,6.52,4.12s2.68,3.57,5.78,3.21c4.78-.57,8.73,3,9.54,7.7a6.73,6.73,0,0,1-4.21,7.68c-1.85.78-2.84,1.37-2.28,3.95,1.13,5.27-2.56,9.05-7.36,8.26a6.5,6.5,0,0,1-4.15-2.78,2.61,2.61,0,0,0-3.21-1c-4.8,1.27-8.37-1.34-8.49-6.22,0-1.64-.39-2.5-2.28-2.71-3.65-.4-5.09-1.67-4.95-4.31.17-2.86,1.83-6.27,5.16-6.39,2.65-.09,3.16-1.61,2.74-3.63C182.09,494.64,185.68,490.62,190.08,490.64Z" transform="translate(-133.31 -278.5)"/><path class="cls-4" d="M186.3,529c2-.33,3.8-.69,5.46.84,3.8,3.49,10.6,3.22,15-.14,3.41-2.58,5.08-5.53,5.16-9.62,0-.77,3.15-4.09,3.88-4.12s.75.69.83,1.16c1.62,10.47,3.47,20.91,4.86,31.42a23.86,23.86,0,0,0,7,14.19,11,11,0,0,1,.92,1.21C218.28,559.69,191.44,538.15,186.3,529Z" transform="translate(-133.31 -278.5)"/><path class="cls-3" d="M409.87,513.42c-.07,3.61-1.46,5.51-4.77,6.33a2.23,2.23,0,0,0-2,2.16,6,6,0,0,1-4.78,5.33,5.69,5.69,0,0,1-6.39-3.93c-.9-2.42-2.3-3-4.68-3a6.93,6.93,0,0,1-7.07-7.09c0-4.66,3.36-8.49,7.44-8.61a5.62,5.62,0,0,1,1.16,0c2.43.42,3.61-.64,4.36-3,1.09-3.38,4-4.82,7.11-3.81a7,7,0,0,1,4.82,6c.37,2.48.64,4.6,3.44,5.69C410.08,510.2,409.82,512.1,409.87,513.42Z" transform="translate(-133.31 -278.5)"/><path class="cls-4" d="M431.85,436.52c.31.11.6.3.54.64-.55,3.14-.31,6.33-.38,9.49,0,1.51-.49,2-2,2q-18.12-.07-36.24,0c-1.71,0-2.12-.7-2-2.24.1-2.26.33-4.24,2.51-5.76,1.46-1,2.37-2.83,3.52-4.28.77.05,1.54.14,2.31.14Z" transform="translate(-133.31 -278.5)"/><path class="cls-6" d="M207.9,385.32a168,168,0,0,0-3.2,17.8,5.56,5.56,0,0,1-3.22,4.63c-6.42,3.41-12.73,7-19.45,10.73.79-4.05,1.62-7.79,2.24-11.56.71-4.29,3.1-8.15,3.07-12.6,0-.71.63-.81,1.08-1.06l19-10.29C208.66,383.53,207.26,384.63,207.9,385.32Z" transform="translate(-133.31 -278.5)"/><path class="cls-6" d="M174.37,357.34c.23-.3.39-.72.69-.89q10.19-5.9,20.42-11.75c.51,1.06-.54,2,.13,2.84l0-.07c-1.87,5.79-2.14,11.86-3.1,17.81a3,3,0,0,1-1.4,2.49c-6.81,3.82-13.6,7.68-20.75,11.73,1.09-6.24,2.1-12.08,3.12-17.92A11,11,0,0,0,174.37,357.34Z" transform="translate(-133.31 -278.5)"/><path class="cls-6" d="M232.16,325.65c-1.33,6.24-1.92,12.61-3,18.89a3.41,3.41,0,0,1-1.48,2.75c-6,3.32-12,6.68-18,10-.51.29-1.13.82-1.66.42s0-1.1.13-1.67c.88-5.79,1.73-11.59,2.59-17.39a2.72,2.72,0,0,0,.41-2.35c1.92-2.33,4.76-3.34,7.22-4.87,4.12-2.55,8.39-4.87,12.59-7.3a1.36,1.36,0,0,1,1-.32Z" transform="translate(-133.31 -278.5)"/><path class="cls-6" d="M247.91,315.73a1.78,1.78,0,0,1,1.15-1.8c4.52-2.57,9-5.19,13.5-7.78a3.87,3.87,0,0,1,4.57.08c1.4,1.08,1.19,2.54.87,4.18-.87,4.56-1.48,9.17-2.19,13.77-.12.76-.18,1.49-1,2-6.6,3.71-13.18,7.46-20.09,11.37l3.05-20.82A.8.8,0,0,0,247.91,315.73Z" transform="translate(-133.31 -278.5)"/><path class="cls-3" d="M299.18,386.17a9.92,9.92,0,0,1-9.05-5.71,5.68,5.68,0,0,1,.1-4.95c1.08-2.29.87-4.08-1.17-5.72-1.63-1.31-1.72-3-.66-4.77.76-1.31,1.7-2,3.24-1.45a2.38,2.38,0,0,0,2.54-.53c3.87-3.27,7.86-3.14,11.54.36a9.92,9.92,0,0,1,3.42,6.16c.09.92.25,2-.44,2.68-1.68,1.67-1.65,3.63-1.51,5.8C307.52,383.14,304.44,386.17,299.18,386.17Z" transform="translate(-133.31 -278.5)"/><path class="cls-6" d="M247.11,364.84c-.65,3.18-1.37,6.35-1.93,9.55a2.17,2.17,0,0,1-2.08,2c-5.8,1-9.47,4.64-11.42,10-.52,1.43-1,2.66-2.51,3.34a6.87,6.87,0,0,0-2.5,2.7c-1.43,2.09-3.58,3.07-6.09,4.29,1.28-6.86,2.49-13.35,3.69-19.83a3.58,3.58,0,0,0,.44-2.85c1.8-2.12,4.4-3,6.72-4.31,5.28-3,10.64-5.77,16-8.64C247.28,362.37,246.83,363.58,247.11,364.84Z" transform="translate(-133.31 -278.5)"/><path class="cls-6" d="M284,345.26c-.73,5.6-1.4,11.2-2.59,16.72-.28,1.3-.67,1.84-2.32,1.41a19.16,19.16,0,0,0-16.51,3.18l-2.33,1.66a97.78,97.78,0,0,0,2.27-11.83,2.08,2.08,0,0,0,.25-2.33,1.92,1.92,0,0,1,1.26-1.8q7.56-4.11,15.07-8.29a4.5,4.5,0,0,1,3.79-.54Z" transform="translate(-133.31 -278.5)"/><path class="cls-6" d="M416.88,429.19c-5.51,0-11-.05-16.53,0-1.28,0-1.7-.39-1.69-1.57a12.52,12.52,0,0,0-1.28-5.34c-.47-1.05-.58-1.62,1-1.61,9.78.06,19.56,0,29.35.06,4.08,0,6.47,2.07,7.56,6,.57,2.06.17,2.57-2.08,2.57H416.88Z" transform="translate(-133.31 -278.5)"/><path class="cls-6" d="M399,379.61c3.35-.17,3.47,0,3.32,4.67l-20,.1c-5-.2-10-.17-15,0l-4.1-3.79c1.27-1.18,2.76-1,4.19-1Z" transform="translate(-133.31 -278.5)"/><path class="cls-6" d="M157.5,367.54q-1.08,5.35-2.17,10.72c-.14.66-.08,1.38-1.09,1.48-3.9.38-7.08,2.57-10.47,4.23-.37.18-.5.71-1.12.33-3.1-1.88-3.42-6.93-.37-8.78,4.64-2.81,9.41-5.4,14.12-8.1a1.23,1.23,0,0,1,1.09-.18l-.08.16Z" transform="translate(-133.31 -278.5)"/><path class="cls-5" d="M156.13,386.63c1.93.1,4.25,1.27,6.66,2.08,4.34,1.45,8.67,2.93,13,4.41a26.43,26.43,0,0,1,2.61,1c1.06.49,2.33,1.13,1.73,2.53s-1.77.34-2.64.11c-6.45-1.67-12.73-3.87-19-6-4.07-1.38-6.56-.24-8.49,3.66-.79,1.59-1.5,3.23-2.16,4.89-.34.86-.71,1.21-1.43.41-1.29-1.44-2.56-2.9-3.83-4.37-.46-.52-.89-1-.31-1.81C143.4,391.86,153.3,386.61,156.13,386.63Z" transform="translate(-133.31 -278.5)"/><path class="cls-4" d="M399.52,403.62c0-3,0-6,0-9.06,0-2.09,1.24-3.44,3-3.44a3.43,3.43,0,0,1,3.52,3.51c0,5.89,0,11.78.05,17.67,0,1.58-.65,1.94-2.06,2-4.49.1-4.49.14-4.5-4.37v-6.28Z" transform="translate(-133.31 -278.5)"/><path class="cls-3" d="M443.41,474.24c0-2.48,0-5,0-7.44s.94-3,3.1-2.12c3.41,1.36,6,5.92,5.7,10.06a9.93,9.93,0,0,1-7.06,9.07c-1.38.37-1.81-.07-1.77-1.43.06-2.71,0-5.43,0-8.14Z" transform="translate(-133.31 -278.5)"/><path class="cls-4" d="M416.74,496.48h4.89c1.43,0,2.19.57,1.94,2.14-.31,1.91-.61,3.82-.82,5.74-.1.94-.64,1.15-1.41,1.15h-8.16c-1.06,0-1.53-.41-1.5-1.52a10.41,10.41,0,0,0-1.45-5.57c-.91-1.56.09-1.82,1.15-1.88,1.78-.12,3.57,0,5.36,0Z" transform="translate(-133.31 -278.5)"/><path class="cls-6" d="M199.39,436.61a3.42,3.42,0,0,1-1.77,3.28q-6.08,3.42-12.19,6.74a6.36,6.36,0,0,1-1.76.57,2.65,2.65,0,0,1-3.27-1.55c-.59-1.34.06-2.4,1.13-3.22a10.08,10.08,0,0,1,1.59-.94q6.57-3.45,13.17-6.87C198.9,433.28,199.34,433.58,199.39,436.61Z" transform="translate(-133.31 -278.5)"/><path class="cls-6" d="M190.69,464.26a2.87,2.87,0,0,1-3-1.93,2.07,2.07,0,0,1,.84-2.84,150,150,0,0,1,14.82-7.74c.92-.39,2-.59,2.58.68s1.25,2.53-.26,3.75a39.94,39.94,0,0,1-4.63,2.63c-2.65,1.6-5.36,3.11-8.07,4.6A15.87,15.87,0,0,1,190.69,464.26Z" transform="translate(-133.31 -278.5)"/><path class="cls-6" d="M199.1,480.37c-2,.19-2.66-.61-3.14-1.65a2,2,0,0,1,.8-2.65c3.67-2.46,7.72-4.23,11.63-6.25.25-.13.52-.28.83,0,.58.52.95,4.67.32,5-3.22,1.82-6.25,4-9.72,5.38C199.4,480.41,198.91,480.4,199.1,480.37Z" transform="translate(-133.31 -278.5)"/><path class="cls-5" d="M224.71,374.1a3.58,3.58,0,0,1-.44,2.85c-4.56,2.9-9.21,5.66-14,8.11-.76.38-1.47.94-2.33.26-.64-.69.76-1.79-.47-2.35q6.18-3.39,12.39-6.76A18,18,0,0,1,224.71,374.1Z" transform="translate(-133.31 -278.5)"/><path class="cls-5" d="M157.5,367.54l-.09-.14.08-.16c.78-1.52,2.44-1.83,3.74-2.6,4.3-2.56,8.46-5.41,13.14-7.3a11,11,0,0,1-.86,4.24c-.17-.57-.21-.87-1-.38-4.05,2.51-8.23,4.82-12.27,7.37C158.62,369.59,157.94,369.16,157.5,367.54Z" transform="translate(-133.31 -278.5)"/><path class="cls-5" d="M262.72,354.07a2.08,2.08,0,0,1-.25,2.33c-5.18,2.7-9.93,6.18-15.36,8.43-.28-1.25.17-2.46.29-3.68q6-3.12,12-6.25A5.3,5.3,0,0,1,262.72,354.07Z" transform="translate(-133.31 -278.5)"/><path class="cls-5" d="M211.18,336.31a2.72,2.72,0,0,1-.41,2.35c-2.9,2.92-6.66,4.56-10.05,6.73-1.08.69-2.17,1.42-3.28,2.08-.67.4-1.19.69-1.8,0l0,.07c.12-3.64,3-4.68,5.61-6C204.58,339.89,207.57,337.52,211.18,336.31Z" transform="translate(-133.31 -278.5)"/><path class="cls-5" d="M247.91,315.73a.8.8,0,0,1-.14,1c-1.84,3.63-5.8,4.53-8.74,6.75-1.47,1.11-3.2,1.87-4.71,2.93-1.18.83-1.72.35-2.16-.72l-.12-1.83,12.59-7A8.91,8.91,0,0,1,247.91,315.73Z" transform="translate(-133.31 -278.5)"/><path class="cls-2" d="M308,471.9c-.09,8.44-.22,16.89-.26,25.33-.1,21.1-.29,42.19.22,63.27l-.64-.08V468.81C308,469.84,307.17,471.06,308,471.9Z" transform="translate(-133.31 -278.5)"/><path class="cls-6" d="M412.66,384.47a12.34,12.34,0,0,0-1.36-.18c-5.13-.12-5.13-.11-5.22-5.29,2.36,1.19,4.82.69,7.26.43a2.24,2.24,0,0,1,2.44,2.43c.08,1.77-1,2.47-2.52,2.71Z" transform="translate(-133.31 -278.5)"/><path class="cls-2" d="M431.85,436.52H400.06c-.77,0-1.54-.09-2.31-.14A.54.54,0,0,1,398,436l-.06,0a6.63,6.63,0,0,1,3.41-.39q14.26,0,28.53.07C430.53,435.74,431.71,435,431.85,436.52Z" transform="translate(-133.31 -278.5)"/><path class="cls-4" d="M429.58,505.37c-.28-2.57.22-4.77.38-7,.13-1.93,1.58-2.22,3-1.78,1.63.49.93,2.1.43,2.68C431.86,501,432.08,503.85,429.58,505.37Z" transform="translate(-133.31 -278.5)"/><path class="cls-5" d="M162.43,401.5a3,3,0,0,1,3,3.06,3.15,3.15,0,0,1-3.2,3c-1.81-.19-2.65-1.37-2.62-3.18S160.45,401.43,162.43,401.5Z" transform="translate(-133.31 -278.5)"/><path class="cls-6" d="M207.73,491.24A14.06,14.06,0,0,1,210,490c.83-.28,1.84-1.57,2.49-.58a5.51,5.51,0,0,1,.47,4.22c-.17.7-.95.31-1.39.18C210.08,493.4,209.06,492.31,207.73,491.24Z" transform="translate(-133.31 -278.5)"/><path class="cls-4" d="M386.16,496.38c.67.36,2.14-.42,1.94.82s-1.93.9-3,1.3a1,1,0,0,1-1.28-.92C384,496,385.3,496.62,386.16,496.38Z" transform="translate(-133.31 -278.5)"/><path class="cls-5" d="M284,345.26l-1.11-1.82a10.66,10.66,0,0,1,2.22-.34c1,0,1.89.71,1.75,1.71s-1.16.9-2,.62A8.36,8.36,0,0,0,284,345.26Z" transform="translate(-133.31 -278.5)"/><path class="cls-5" d="M367.3,384.42c5-.21,10-.24,15,0C377.28,384.61,372.29,385,367.3,384.42Z" transform="translate(-133.31 -278.5)"/><path class="cls-2" d="M275.68,546.51c.79,4.65.4,9.34.57,14l-.67-.14C275.76,555.77,275.25,551.14,275.68,546.51Z" transform="translate(-133.31 -278.5)"/><path class="cls-4" d="M397.94,436.05l.06,0Z" transform="translate(-133.31 -278.5)"/><path class="cls-6" d="M370.35,333.16c3.48-2.39,3.6-2.36,5.32,1.51a5.58,5.58,0,0,1-2,6.94c-1,.68-1.55-.24-2.22-.6-1.09-.57-1.72-2.07-3.32-1.61L367,339a.43.43,0,0,0-.64-.14l-1.23,0a1.19,1.19,0,0,0-1.52.23c-2.95,1.45-4.82,4.36-4.57,7.11.23,2.49,2.5,4.88,5.46,5.72l-3.9,3.94a4.17,4.17,0,0,0-.66-2.86c-2-3.72-6.95-4.31-8.9-1.07-1.53,2.53-1.34,7.66,2.74,8.86-.8,3.11-6.26,5.55-8.59,3.75-.93-.72-.23-1.64.2-2.45,1.14-2.11,2.3-4.22,1.32-6.54l-.94,1.35a6.51,6.51,0,0,0-.7-3.38,6,6,0,0,0-6.16-3.65,5.77,5.77,0,0,0-5.18,5.1c-.4.68-.68,1.72-1.69.56s-1.92-2.2-2.88-3.31c4.51-1.77,6.47-4.59,5.62-8.09-.9-3.73-3.66-5.45-7.94-4.95a.41.41,0,0,0-.61.26l-.34.17c-1.83-.18-2.77,1.18-3.81,2.28-.86.89-1.35,1.17-2.3,0a8.42,8.42,0,0,1-.27-10.41c1-1.43,1.72-.38,2.36.33,1.28,1.41,2.3,3.17,4.57,3.08a7.89,7.89,0,0,0,4.12-.12c5.54-1.64,7.58-6.36,5.5-12.75-.1-4.58,2.6-6.77,6.29-5.11-.41.82-.88,1.61-1.21,2.46-1.17,3,0,5,3.22,5.43a44.54,44.54,0,0,0,8.55.44c2.16-.11,4.09-.84,4.82-3.21a1.14,1.14,0,0,0,.07-1.59l-.13-.74c1.79.25,3.74.18,4.61,2.28-1.13,1.38-2.27,2.75-3.39,4.14a4,4,0,0,0-.79,3.52,6.73,6.73,0,0,0,5,5.26C365.71,335.48,368.34,335.49,370.35,333.16Zm-32.93,4.94a9.87,9.87,0,0,0,9.43,9.88,10,10,0,1,0,.35-19.9A9.87,9.87,0,0,0,337.42,338.1Z" transform="translate(-133.31 -278.5)"/><path class="cls-1" d="M357.69,321.94c-.73,2.37-2.66,3.1-4.82,3.21a44.54,44.54,0,0,1-8.55-.44c-3.2-.44-4.39-2.44-3.22-5.43.33-.85.8-1.64,1.21-2.46,4.43-4.32,12.21-2.91,15.32,2.79,0,.24.09.49.13.74A2.24,2.24,0,0,0,357.69,321.94Z" transform="translate(-133.31 -278.5)"/><path class="cls-1" d="M336,321.93c2.08,6.39,0,11.11-5.5,12.75a7.89,7.89,0,0,1-4.12.12c-2.93-3.09-3.11-3.94-.9-7.84a19.81,19.81,0,0,1,9.82-8.4C335.85,319.82,335.12,321,336,321.93Z" transform="translate(-133.31 -278.5)"/><path class="cls-1" d="M370.35,333.16c-2,2.33-4.64,2.32-7.25,1.65a6.73,6.73,0,0,1-5-5.26,4,4,0,0,1,.79-3.52c1.12-1.39,2.26-2.76,3.39-4.14,1.65,0,2.52,1.24,3.52,2.28C368.19,326.71,370,329.55,370.35,333.16Z" transform="translate(-133.31 -278.5)"/><path class="cls-1" d="M364.46,351.87c-3-.84-5.23-3.23-5.46-5.72-.25-2.75,1.62-5.66,4.57-7.11a1.62,1.62,0,0,0,1.52-.23l1.23,0a.44.44,0,0,0,.64.14l1.15.42C372.19,343.81,369.53,349.24,364.46,351.87Z" transform="translate(-133.31 -278.5)"/><path class="cls-1" d="M326.8,339.13c4.28-.5,7,1.22,7.94,4.95.85,3.5-1.11,6.32-5.62,8.09a21.87,21.87,0,0,1-3.54-3.33c-2.36-3.3-2.31-5.69.27-9.28l.34-.17A.45.45,0,0,0,326.8,339.13Z" transform="translate(-133.31 -278.5)"/><path class="cls-1" d="M386.52,349.46c-2.09,0-4.18-.08-6.27-.09-1.47,0-1.69-.73-1.62-2.11.13-2.58,1.28-3.26,3.78-3.12,4.41.24,8.84.12,13.26.12,4.08,0,4.85,1,3.74,4.9C395.12,349.67,390.81,349.23,386.52,349.46Z" transform="translate(-133.31 -278.5)"/><path class="cls-1" d="M333.69,354.92a5.77,5.77,0,0,1,5.18-5.1,6,6,0,0,1,6.16,3.65,6.51,6.51,0,0,1,.7,3.38c-1.31,2.93-3.38,4.4-5.69,4.06A7.1,7.1,0,0,1,333.69,354.92Z" transform="translate(-133.31 -278.5)"/><path class="cls-1" d="M353.74,360.74c-4.08-1.2-4.27-6.33-2.74-8.86,1.95-3.24,6.87-2.65,8.9,1.07a4.17,4.17,0,0,1,.66,2.86A8.76,8.76,0,0,1,353.74,360.74Z" transform="translate(-133.31 -278.5)"/><path class="cls-1" d="M400,354.48c1,3.48,0,4.86-3.52,4.94-2.64.06-5.27.07-7.9.15-1.47,0-2-1-2.4-2.07a20.77,20.77,0,0,1-.57-2.95c3.76-1.61,7.72-.56,11.57-.86A4.13,4.13,0,0,1,400,354.48Z" transform="translate(-133.31 -278.5)"/><path class="cls-1" d="M363.31,369c2.67-1.31,4.61-3.1,6.78-4.55,2.37-1.59,5.08-.43,7.66-.31,2.18.1,2.94,1.11,2.84,3.26-.08,1.69-.67,2.34-2.34,2.36C373.4,369.8,368.54,370.08,363.31,369Z" transform="translate(-133.31 -278.5)"/><path class="cls-1" d="M392.53,369.78h-3.71c-1.64,0-2.7-.8-2.79-2.43s.15-3,2.31-3.23a66.44,66.44,0,0,1,8.81-.15,2.6,2.6,0,0,1,2.72,2.85,2.83,2.83,0,0,1-2.93,3c-1.46.09-2.94,0-4.41,0Z" transform="translate(-133.31 -278.5)"/><path class="cls-6" d="M400,354.48a4.13,4.13,0,0,0-2.82-.79c-3.85.3-7.81-.75-11.57.86-.6-.21-1.61-.09-1.38-1.11.33-1.54.14-3.48,2.31-4,4.29-.23,8.6.21,12.89-.3,1.38.19,3,.21,3.1,2.08C402.56,352.83,402.05,354.36,400,354.48Z" transform="translate(-133.31 -278.5)"/><path class="cls-6" d="M407.05,354.13c-1.27-1.51-.41-3.25-.52-4.88a24.24,24.24,0,0,0,6.91,0c2.16-.24,2.05,1.4,2.17,2.73.14,1.52-.6,2.32-2.19,2.19A15.2,15.2,0,0,0,407.05,354.13Z" transform="translate(-133.31 -278.5)"/><path class="cls-1" d="M407.05,354.13a15.2,15.2,0,0,1,6.37,0c.71,1.65.92,3.34-.38,4.74-.8.85-5.18.69-6.09,0C405.86,358.07,405.91,355.6,407.05,354.13Z" transform="translate(-133.31 -278.5)"/><path class="cls-1" d="M410,369.85c-2.41,0-3.69-1.14-3.67-3.2s1.23-2.87,3.69-2.87,3.85,1.2,3.77,3.13C413.71,368.64,412.12,369.87,410,369.85Z" transform="translate(-133.31 -278.5)"/><path class="cls-1" d="M413.34,379.43c-2.44.26-4.9.76-7.26-.43,0-.07,0-.15.05-.22.1-4.35,1.11-5.13,5.49-4.27a2.06,2.06,0,0,1,1.93,2.39C413.49,377.75,413.41,378.59,413.34,379.43Z" transform="translate(-133.31 -278.5)"/><path class="cls-1" d="M413.44,349.25a24.24,24.24,0,0,1-6.91,0,5.63,5.63,0,0,0-.1-.91c-.37-1.43-.46-3,1.05-3.63a5,5,0,0,1,5.27.42A3,3,0,0,1,413.44,349.25Z" transform="translate(-133.31 -278.5)"/><path class="cls-1" d="M374.72,359c1-1.73,1.85-3.19,2.74-4.62a1.35,1.35,0,0,1,2.33-.22c1.16,1.16.72,2.61.33,3.91a2.07,2.07,0,0,1-2.58,1.41Z" transform="translate(-133.31 -278.5)"/><path class="cls-2" d="M289.44,479.47c-.46-7.47-.58-14.94-.47-22.41a3.22,3.22,0,0,1,.41,1Q289.44,468.78,289.44,479.47Z" transform="translate(-133.31 -278.5)"/><path class="cls-6" d="M423.79,471.47c0,3.49,0,7,0,10.48,0,1.61-.56,2.15-2.18,2.13q-9.19-.1-18.4,0c-1.93,0-2.53-1.1-2.45-2.61.35-6.29.18-12.57.15-18.85,0-3.44.14-3.68,3.62-3.67,5.74,0,11.49.09,17.23,0,1.82,0,2.22.55,2.14,2.27-.16,3.41-.05,6.83-.05,10.24ZM409,465.26c-2,0-3.13,1.4-2.85,3a3.35,3.35,0,0,0,2.06,2.33c2.94,1.45,5.62,3.37,8.7,4.58,1.4.55,2.4.9,3.23-.72.91-1.77.58-3.24-1.15-4.07-2.21-1-4.23-2.42-6.37-3.56C411.35,466.1,410.13,465.17,409,465.26Z" transform="translate(-133.31 -278.5)"/><path class="cls-1" d="M337.42,338.1a9.87,9.87,0,0,1,9.78-10,10,10,0,1,1-.35,19.9A9.87,9.87,0,0,1,337.42,338.1Z" transform="translate(-133.31 -278.5)"/><path class="cls-5" d="M365.09,338.81a1.62,1.62,0,0,1-1.52.23A1.19,1.19,0,0,1,365.09,338.81Z" transform="translate(-133.31 -278.5)"/><path class="cls-5" d="M357.69,321.94a2.24,2.24,0,0,1,.07-1.59A1.14,1.14,0,0,1,357.69,321.94Z" transform="translate(-133.31 -278.5)"/><path class="cls-5" d="M326.8,339.13a.45.45,0,0,1-.61.26A.41.41,0,0,1,326.8,339.13Z" transform="translate(-133.31 -278.5)"/><path class="cls-5" d="M367,339a.44.44,0,0,1-.64-.14A.43.43,0,0,1,367,339Z" transform="translate(-133.31 -278.5)"/><path class="cls-3" d="M409,465.26c1.15-.09,2.37.84,3.62,1.52,2.14,1.14,4.16,2.51,6.37,3.56,1.73.83,2.06,2.3,1.15,4.07-.83,1.62-1.83,1.27-3.23.72-3.08-1.21-5.76-3.13-8.7-4.58a3.35,3.35,0,0,1-2.06-2.33C405.85,466.66,407,465.3,409,465.26Z" transform="translate(-133.31 -278.5)"/></svg>